# xmcd
#
# Track frame offsets: 
#        150
#        16925
#        38284
#        73556
#        106541
#        126368
#        167830
#        188935
#        205283
#        224601
#        229210
#        252456
#
# Disc length: 3714 seconds
#
# Revision: 0
# Processed by: cddbd v1.5.2PL0 Copyright (c) Steve Scherf et al.
# Submitted via: ExactAudioCopy v0.99pb5
#
DISCID=a60e800c
DTITLE=Johnny Coyote - Blues Bastard
DYEAR=2011
DGENRE=Southern Rock
TTITLE0=Where Is My Cow?
TTITLE1=I'm Gonna Shoot You
TTITLE2=Toy Story
TTITLE3=Diamond
TTITLE4=Train
TTITLE5=Blind Alley
TTITLE6=Enumeration
TTITLE7=I'm Here
TTITLE8=Bastard
TTITLE9=Intro To Ten ...
TTITLE10=Ten Pieces Of Me
TTITLE11=Fear
EXTD=
EXTT0=
EXTT1=
EXTT2=
EXTT3=
EXTT4=
EXTT5=
EXTT6=
EXTT7=
EXTT8=
EXTT9=
EXTT10=
EXTT11=
PLAYORDER=
